<?xml version="1.0" encoding="utf-8"?>
<!-- Generator: Adobe Illustrator 24.2.0, SVG Export Plug-In . SVG Version: 6.00 Build 0)  -->
<svg version="1.1" id="Capa_1" xmlns="http://www.w3.org/2000/svg" xmlns:xlink="http://www.w3.org/1999/xlink" x="0px" y="0px"
	 viewBox="0 0 444.7 444.7" style="enable-background:new 0 0 444.7 444.7;" xml:space="preserve">
<style type="text/css">
	.st0{fill:#FFFFFF;}
</style>
<g>
	<g>
		<path class="st0" d="M91,86.9h28.2c1.4,0,2.5-1.1,2.5-2.5c0-1.4-1.1-2.5-2.5-2.5H91c-1.4,0-2.5,1.1-2.5,2.5
			C88.5,85.8,89.6,86.9,91,86.9z"/>
		<path class="st0" d="M423.3,325.8v-28.2c0-1.4-1.1-2.5-2.5-2.5c-1.4,0-2.5,1.1-2.5,2.5v28.2c0,1.4,1.1,2.5,2.5,2.5
			C422.1,328.3,423.3,327.2,423.3,325.8z"/>
		<path class="st0" d="M0,412.8c0,14.2,11.5,25.7,25.7,25.7h158.9c9.4,0,17.6-5.1,22.1-12.7c2.7-4.6,7.5-9,12.7-9H419
			c14.1,0,25.7-11.5,25.7-25.6V232.2c0-14.2-11.5-25.7-25.7-25.7h-199c-5.3,0-9.6,2.2-9.6,5s4.3,5,9.6,5h199c8.6,0,15.6,7,15.6,15.6
			v158.9c0,8.6-7,15.6-15.6,15.6H219.8c-5.3,0-9.6-2.2-9.6-5c0-2.7,4.3-5,9.6-5h180.7c1.4,0,2.5-1.1,2.5-2.5V229
			c0-1.4-1.1-2.5-2.5-2.5H219.8c-5.3,0-9.6-4.3-9.6-9.6V86.1c0-14.2-11.5-25.7-25.7-25.7H25.7C11.5,60.4,0,71.9,0,86.1V412.8z
			 M219.8,231.5h168.7c5.3,0,9.6,4.3,9.6,9.6v141.1c0,5.3-4.3,9.6-9.6,9.6H219.8c-5.3,0-9.6-4.3-9.6-9.6V241.1
			C210.2,235.8,214.5,231.5,219.8,231.5z M200.2,86.1v326.7c0,8.6-7,15.6-15.6,15.6H25.7c-8.6,0-15.6-7-15.6-15.6V86.1
			c0-8.6,7-15.6,15.6-15.6h158.9C193.2,70.5,200.2,77.5,200.2,86.1z"/>
		<path class="st0" d="M20,104.7v286.8c0,1.4,1.1,2.5,2.5,2.5h165.3c1.4,0,2.5-1.1,2.5-2.5V104.7c0-1.4-1.1-2.5-2.5-2.5H22.5
			C21.1,102.2,20,103.3,20,104.7z M34.5,107.2h141.1c5.3,0,9.6,4.3,9.6,9.6v262.7c0,5.3-4.3,9.6-9.6,9.6H34.5
			c-5.3,0-9.6-4.3-9.6-9.6V116.7C25,111.4,29.3,107.2,34.5,107.2z"/>
		<path class="st0" d="M119.5,399.7H90.7c-5.9,0-10.8,4.8-10.8,10.8v1.7c0,5.9,4.8,10.8,10.8,10.8h28.9c5.9,0,10.8-4.8,10.8-10.8
			v-1.7C130.3,404.5,125.5,399.7,119.5,399.7z M125.3,412.2c0,3.2-2.6,5.7-5.7,5.7H90.7c-3.2,0-5.7-2.6-5.7-5.7v-1.7
			c0-3.2,2.6-5.7,5.7-5.7h28.9c3.2,0,5.7,2.6,5.7,5.7V412.2z"/>
		<path class="st0" d="M258.1,15.4c-14.4-6.1-29.7-9.1-45.4-9.1c-29.6,0-57.9,11-79.7,30.9c0,0-0.3,0.2-0.6,0.6
			c-0.3,0.3,0.9,2.2,2.8,4.3c1.9,2.1,3.7,3.4,4,3.1l0.6-0.6c19.9-18.2,45.8-28.3,72.9-28.3c14.3,0,28.3,2.8,41.5,8.3
			c43.9,18.4,70,63.2,65.4,109.6c-0.4,3.7-3.7,5.8-7.3,4.7l-9.1-2.7c-3.5-1.1-5,0.7-3.2,3.9l12.6,23.6c1.7,3.3,5.8,4.5,9,2.7
			l23.6-12.6c3.3-1.7,3-4-0.5-5.1l-10-3c-3.5-1.1-5.9-4.9-5.4-8.6C335.4,85.8,306.7,35.8,258.1,15.4z"/>
	</g>
</g>
</svg>
