<svg xmlns="http://www.w3.org/2000/svg" width="36" height="30" viewBox="0 0 36 30">
  <g id="screenshoot" transform="translate(-30.598 -539.063)">
    <g id="Group_43" data-name="Group 43" transform="translate(0 -410.894)">
      <path id="Path_15" data-name="Path 15" d="M34.5,28.5a3,3,0,0,1-3,3H4.5a3,3,0,0,1-3-3V12a3,3,0,0,1,3-3h6l3-4.5h9l3,4.5h6a3,3,0,0,1,3,3Z" transform="translate(30.598 946.957)" fill="none" stroke="#fff" stroke-linecap="round" stroke-linejoin="round" stroke-width="3"/>
      <path id="Path_16" data-name="Path 16" d="M24,19.5a6,6,0,1,1-6-6,6,6,0,0,1,6,6Z" transform="translate(30.598 946.957)" fill="none" stroke="#fff" stroke-linecap="round" stroke-linejoin="round" stroke-width="3"/>
    </g>
  </g>
</svg>
